<?xml version="1.0" encoding="UTF-8"?>
<!DOCTYPE svg PUBLIC "-//W3C//DTD SVG 1.1//EN" "http://www.w3.org/Graphics/SVG/1.1/DTD/svg11.dtd">
<!-- Creator: CorelDRAW X7 -->
<svg xmlns="http://www.w3.org/2000/svg" xml:space="preserve" width="70.358mm" height="86.6986mm" version="1.1" style="shape-rendering:geometricPrecision; text-rendering:geometricPrecision; image-rendering:optimizeQuality; fill-rule:evenodd; clip-rule:evenodd"
viewBox="0 0 7036 8670"
 xmlns:xlink="http://www.w3.org/1999/xlink">
 <defs>
  <style type="text/css">
   <![CDATA[
    .fil0 {fill:white}
   ]]>
  </style>
 </defs>
 <g id="Layer_x0020_1">
  <metadata id="CorelCorpID_0Corel-Layer"/>
  <path class="fil0" d="M7034 4329c0,220 -184,392 -391,392l-391 0 8 1957c0,33 -2,66 -6,99l0 196c0,270 -218,489 -488,489l-196 0c-13,0 -27,0 -40,-1 -17,1 -34,1 -51,1l-397 0 -293 0c-270,0 -489,-219 -489,-489l0 -293 0 -782c0,-216 -175,-390 -391,-390l-782 0c-216,0 -391,174 -391,390l0 782 0 293c0,270 -218,489 -488,489l-293 0 -390 0c-18,0 -37,-1 -55,-2 -15,1 -29,2 -44,2l-195 0c-270,0 -489,-219 -489,-489l0 -1368c0,-11 0,-23 1,-34l0 -850 -392 0c-220,0 -391,-171 -391,-392 0,-110 37,-208 122,-293l3132 -2730c86,-86 184,-98 269,-98 86,0 183,24 257,85l3119 2743c98,85 147,183 135,293l0 0z"/>
 </g>
</svg>
