<?xml version="1.0" encoding="UTF-8"?>
<!DOCTYPE svg PUBLIC "-//W3C//DTD SVG 1.1//EN" "http://www.w3.org/Graphics/SVG/1.1/DTD/svg11.dtd">
<!-- Creator: CorelDRAW X7 -->
<svg xmlns="http://www.w3.org/2000/svg" xml:space="preserve" width="70.358mm" height="86.6986mm" version="1.1" style="shape-rendering:geometricPrecision; text-rendering:geometricPrecision; image-rendering:optimizeQuality; fill-rule:evenodd; clip-rule:evenodd"
viewBox="0 0 7036 8670"
 xmlns:xlink="http://www.w3.org/1999/xlink">
 <defs>
  <style type="text/css">
   <![CDATA[
    .fil0 {fill:white}
   ]]>
  </style>
 </defs>
 <g id="Layer_x0020_1">
  <metadata id="CorelCorpID_0Corel-Layer"/>
  <path class="fil0" d="M0 1822c0,-278 225,-502 503,-502l6030 0c278,0 503,224 503,502 0,278 -225,503 -503,503l-6030 0c-278,0 -503,-225 -503,-503zm0 2513c0,-278 225,-503 503,-503l6030 0c278,0 503,225 503,503 0,278 -225,502 -503,502l-6030 0c-278,0 -503,-224 -503,-502zm7036 2513c0,278 -225,502 -503,502l-6030 0c-278,0 -503,-224 -503,-502 0,-278 225,-503 503,-503l6030 0c278,0 503,225 503,503z"/>
 </g>
</svg>
